<mxfile host="app.diagrams.net" modified="2023-04-12T14:44:32.276Z" agent="Mozilla/5.0 (Windows NT 10.0; Win64; x64) AppleWebKit/537.36 (KHTML, like Gecko) Chrome/111.0.0.0 Safari/537.36" etag="LGUgcZjMi2aD_C_EGxYz" version="21.1.6" type="device">
  <diagram name="Page-1" id="Y_7X8KvBHby-gtoSnew4">
    <mxGraphModel dx="3520" dy="1808" grid="1" gridSize="10" guides="1" tooltips="1" connect="1" arrows="1" fold="1" page="1" pageScale="1" pageWidth="850" pageHeight="1100" math="0" shadow="0">
      <root>
        <mxCell id="0" />
        <mxCell id="1" parent="0" />
        <mxCell id="WG4gkcfXK7R62H9iYsv2-137" value="" style="rounded=0;whiteSpace=wrap;html=1;movable=0;resizable=0;rotatable=0;deletable=0;editable=0;locked=1;connectable=0;strokeColor=none;" vertex="1" parent="1">
          <mxGeometry width="5910" height="1050" as="geometry" />
        </mxCell>
        <mxCell id="WG4gkcfXK7R62H9iYsv2-127" value="" style="group" vertex="1" connectable="0" parent="1">
          <mxGeometry x="4052" y="172" width="1640" height="740" as="geometry" />
        </mxCell>
        <mxCell id="WG4gkcfXK7R62H9iYsv2-128" value="" style="rounded=0;whiteSpace=wrap;html=1;" vertex="1" parent="WG4gkcfXK7R62H9iYsv2-127">
          <mxGeometry width="1640" height="740" as="geometry" />
        </mxCell>
        <mxCell id="WG4gkcfXK7R62H9iYsv2-129" value="&lt;font style=&quot;font-size: 24px;&quot;&gt;React Component(&lt;b&gt;ws://13.234.219.0&lt;/b&gt;&lt;span style=&quot;background-color: initial;&quot;&gt;)&lt;/span&gt;&lt;/font&gt;" style="rounded=0;whiteSpace=wrap;html=1;dashed=1;" vertex="1" parent="WG4gkcfXK7R62H9iYsv2-127">
          <mxGeometry x="70" y="100" width="1465" height="580" as="geometry" />
        </mxCell>
        <mxCell id="WG4gkcfXK7R62H9iYsv2-130" value="&lt;font style=&quot;font-size: 18px;&quot;&gt;&lt;b style=&quot;border-color: var(--border-color);&quot;&gt;Pixel Streaming&amp;nbsp;&lt;/b&gt;&lt;b&gt;to Pixel Streaming&lt;/b&gt;&lt;/font&gt;" style="text;html=1;strokeColor=none;fillColor=none;align=center;verticalAlign=middle;whiteSpace=wrap;rounded=0;" vertex="1" parent="WG4gkcfXK7R62H9iYsv2-127">
          <mxGeometry x="680" y="33" width="300" height="30" as="geometry" />
        </mxCell>
        <mxCell id="WG4gkcfXK7R62H9iYsv2-133" value="Level&amp;nbsp; Three" style="text;html=1;strokeColor=none;fillColor=none;align=center;verticalAlign=middle;whiteSpace=wrap;rounded=0;" vertex="1" parent="WG4gkcfXK7R62H9iYsv2-127">
          <mxGeometry x="110" y="130" width="70" height="30" as="geometry" />
        </mxCell>
        <mxCell id="WG4gkcfXK7R62H9iYsv2-115" value="" style="rounded=0;whiteSpace=wrap;html=1;" vertex="1" parent="1">
          <mxGeometry x="195" y="170" width="1640" height="740" as="geometry" />
        </mxCell>
        <mxCell id="WG4gkcfXK7R62H9iYsv2-50" style="edgeStyle=orthogonalEdgeStyle;rounded=0;orthogonalLoop=1;jettySize=auto;html=1;" edge="1" parent="1" target="WG4gkcfXK7R62H9iYsv2-42">
          <mxGeometry relative="1" as="geometry">
            <mxPoint x="725" y="784" as="sourcePoint" />
            <mxPoint x="1015" y="553" as="targetPoint" />
          </mxGeometry>
        </mxCell>
        <mxCell id="WG4gkcfXK7R62H9iYsv2-82" value="React Router" style="text;html=1;strokeColor=none;fillColor=none;align=center;verticalAlign=middle;whiteSpace=wrap;rounded=0;" vertex="1" parent="1">
          <mxGeometry x="1149" y="480" width="90" height="30" as="geometry" />
        </mxCell>
        <mxCell id="WG4gkcfXK7R62H9iYsv2-83" style="edgeStyle=orthogonalEdgeStyle;rounded=0;orthogonalLoop=1;jettySize=auto;html=1;entryX=0.001;entryY=0.381;entryDx=0;entryDy=0;entryPerimeter=0;exitX=1.001;exitY=0.517;exitDx=0;exitDy=0;exitPerimeter=0;" edge="1" parent="1" source="WG4gkcfXK7R62H9iYsv2-42">
          <mxGeometry relative="1" as="geometry">
            <mxPoint x="1245.87" y="513.3499999999999" as="targetPoint" />
          </mxGeometry>
        </mxCell>
        <mxCell id="WG4gkcfXK7R62H9iYsv2-42" value="1. Communicating via GSAP Animation Manager 2. Call back function navigate to level 0(another WEBGL)&amp;nbsp;" style="rounded=0;whiteSpace=wrap;html=1;" vertex="1" parent="1">
          <mxGeometry x="885" y="474" width="260" height="76" as="geometry" />
        </mxCell>
        <mxCell id="WG4gkcfXK7R62H9iYsv2-52" style="edgeStyle=orthogonalEdgeStyle;rounded=0;orthogonalLoop=1;jettySize=auto;html=1;entryX=1.018;entryY=0.12;entryDx=0;entryDy=0;entryPerimeter=0;exitX=0.25;exitY=0;exitDx=0;exitDy=0;" edge="1" parent="1" source="WG4gkcfXK7R62H9iYsv2-42" target="WG4gkcfXK7R62H9iYsv2-48">
          <mxGeometry relative="1" as="geometry" />
        </mxCell>
        <mxCell id="WG4gkcfXK7R62H9iYsv2-84" value="" style="group" vertex="1" connectable="0" parent="1">
          <mxGeometry x="265" y="310" width="540" height="580" as="geometry" />
        </mxCell>
        <mxCell id="WG4gkcfXK7R62H9iYsv2-33" value="" style="rounded=0;whiteSpace=wrap;html=1;dashed=1;" vertex="1" parent="WG4gkcfXK7R62H9iYsv2-84">
          <mxGeometry y="370" width="540" height="210" as="geometry" />
        </mxCell>
        <mxCell id="WG4gkcfXK7R62H9iYsv2-14" value="UI Overlay Continue (Context Menu)" style="rounded=0;whiteSpace=wrap;html=1;" vertex="1" parent="WG4gkcfXK7R62H9iYsv2-84">
          <mxGeometry x="110" y="410" width="350" height="104" as="geometry" />
        </mxCell>
        <mxCell id="WG4gkcfXK7R62H9iYsv2-34" value="OnClick(100 ft)" style="text;html=1;strokeColor=none;fillColor=none;align=center;verticalAlign=middle;whiteSpace=wrap;rounded=0;" vertex="1" parent="WG4gkcfXK7R62H9iYsv2-84">
          <mxGeometry x="230" y="470" width="100" height="30" as="geometry" />
        </mxCell>
        <mxCell id="WG4gkcfXK7R62H9iYsv2-37" value="2D Environment &lt;br&gt;(HTML, CSS, Javascript, React)" style="text;html=1;strokeColor=none;fillColor=none;align=center;verticalAlign=middle;whiteSpace=wrap;rounded=0;" vertex="1" parent="WG4gkcfXK7R62H9iYsv2-84">
          <mxGeometry x="270" y="369" width="270" height="40" as="geometry" />
        </mxCell>
        <mxCell id="WG4gkcfXK7R62H9iYsv2-13" style="edgeStyle=orthogonalEdgeStyle;rounded=0;orthogonalLoop=1;jettySize=auto;html=1;exitX=1;exitY=0.75;exitDx=0;exitDy=0;" edge="1" parent="WG4gkcfXK7R62H9iYsv2-84" source="WG4gkcfXK7R62H9iYsv2-48">
          <mxGeometry relative="1" as="geometry">
            <mxPoint x="269" y="420" as="targetPoint" />
            <mxPoint x="180.00000000000023" y="198" as="sourcePoint" />
          </mxGeometry>
        </mxCell>
        <mxCell id="WG4gkcfXK7R62H9iYsv2-15" value="" style="rounded=0;whiteSpace=wrap;html=1;dashed=1;" vertex="1" parent="WG4gkcfXK7R62H9iYsv2-84">
          <mxGeometry width="540" height="350" as="geometry" />
        </mxCell>
        <mxCell id="WG4gkcfXK7R62H9iYsv2-48" value="" style="rounded=0;whiteSpace=wrap;html=1;dashed=1;" vertex="1" parent="WG4gkcfXK7R62H9iYsv2-84">
          <mxGeometry x="92.41379310344828" y="50" width="269.5402298850575" height="250" as="geometry" />
        </mxCell>
        <mxCell id="WG4gkcfXK7R62H9iYsv2-2" value="Camera (10000 Ft)" style="rounded=0;whiteSpace=wrap;html=1;" vertex="1" parent="WG4gkcfXK7R62H9iYsv2-84">
          <mxGeometry x="361.95402298850576" y="159" width="100.11494252873563" height="40" as="geometry" />
        </mxCell>
        <mxCell id="WG4gkcfXK7R62H9iYsv2-5" value="Lights" style="rounded=0;whiteSpace=wrap;html=1;" vertex="1" parent="WG4gkcfXK7R62H9iYsv2-84">
          <mxGeometry x="200.22988505747128" y="10" width="77.01149425287356" height="40" as="geometry" />
        </mxCell>
        <mxCell id="WG4gkcfXK7R62H9iYsv2-45" style="edgeStyle=orthogonalEdgeStyle;rounded=0;orthogonalLoop=1;jettySize=auto;html=1;" edge="1" parent="WG4gkcfXK7R62H9iYsv2-84" source="WG4gkcfXK7R62H9iYsv2-7">
          <mxGeometry relative="1" as="geometry">
            <mxPoint x="154.02298850574712" y="180" as="targetPoint" />
          </mxGeometry>
        </mxCell>
        <mxCell id="WG4gkcfXK7R62H9iYsv2-7" value="Material" style="rounded=0;whiteSpace=wrap;html=1;" vertex="1" parent="WG4gkcfXK7R62H9iYsv2-84">
          <mxGeometry x="15.40229885057471" y="160" width="77.01149425287356" height="40" as="geometry" />
        </mxCell>
        <mxCell id="WG4gkcfXK7R62H9iYsv2-11" style="edgeStyle=orthogonalEdgeStyle;rounded=0;orthogonalLoop=1;jettySize=auto;html=1;entryX=0.5;entryY=1;entryDx=0;entryDy=0;" edge="1" parent="WG4gkcfXK7R62H9iYsv2-84" source="WG4gkcfXK7R62H9iYsv2-10">
          <mxGeometry relative="1" as="geometry">
            <mxPoint x="238.73563218390802" y="250" as="targetPoint" />
          </mxGeometry>
        </mxCell>
        <mxCell id="WG4gkcfXK7R62H9iYsv2-10" value="GLB Loader" style="rounded=0;whiteSpace=wrap;html=1;" vertex="1" parent="WG4gkcfXK7R62H9iYsv2-84">
          <mxGeometry x="115.51724137931035" y="300" width="77.01149425287356" height="40" as="geometry" />
        </mxCell>
        <mxCell id="WG4gkcfXK7R62H9iYsv2-16" value="3D Environment &lt;br&gt;(THREEJS- WEBGL, GSAP, React)" style="text;html=1;strokeColor=none;fillColor=none;align=center;verticalAlign=middle;whiteSpace=wrap;rounded=0;" vertex="1" parent="WG4gkcfXK7R62H9iYsv2-84">
          <mxGeometry x="313.43" y="10" width="196.57" height="40" as="geometry" />
        </mxCell>
        <mxCell id="WG4gkcfXK7R62H9iYsv2-17" value="" style="rounded=0;whiteSpace=wrap;html=1;" vertex="1" parent="WG4gkcfXK7R62H9iYsv2-84">
          <mxGeometry x="154.02298850574712" y="130" width="169.42528735632183" height="120" as="geometry" />
        </mxCell>
        <mxCell id="WG4gkcfXK7R62H9iYsv2-46" style="edgeStyle=orthogonalEdgeStyle;rounded=0;orthogonalLoop=1;jettySize=auto;html=1;entryX=1.019;entryY=0.4;entryDx=0;entryDy=0;entryPerimeter=0;" edge="1" parent="WG4gkcfXK7R62H9iYsv2-84" source="WG4gkcfXK7R62H9iYsv2-2" target="WG4gkcfXK7R62H9iYsv2-17">
          <mxGeometry relative="1" as="geometry" />
        </mxCell>
        <mxCell id="WG4gkcfXK7R62H9iYsv2-47" style="edgeStyle=orthogonalEdgeStyle;rounded=0;orthogonalLoop=1;jettySize=auto;html=1;entryX=0.5;entryY=0;entryDx=0;entryDy=0;" edge="1" parent="WG4gkcfXK7R62H9iYsv2-84" source="WG4gkcfXK7R62H9iYsv2-5" target="WG4gkcfXK7R62H9iYsv2-17">
          <mxGeometry relative="1" as="geometry" />
        </mxCell>
        <mxCell id="WG4gkcfXK7R62H9iYsv2-18" value="PIN" style="rounded=0;whiteSpace=wrap;html=1;" vertex="1" parent="WG4gkcfXK7R62H9iYsv2-84">
          <mxGeometry x="234.8850574712643" y="190" width="65.45977011494253" height="30" as="geometry" />
        </mxCell>
        <mxCell id="WG4gkcfXK7R62H9iYsv2-24" value="PIN" style="rounded=0;whiteSpace=wrap;html=1;" vertex="1" parent="WG4gkcfXK7R62H9iYsv2-84">
          <mxGeometry x="238.73563218390802" y="194" width="65.45977011494253" height="30" as="geometry" />
        </mxCell>
        <mxCell id="WG4gkcfXK7R62H9iYsv2-25" value="PIN" style="rounded=0;whiteSpace=wrap;html=1;" vertex="1" parent="WG4gkcfXK7R62H9iYsv2-84">
          <mxGeometry x="243.35632183908046" y="199" width="65.45977011494253" height="30" as="geometry" />
        </mxCell>
        <mxCell id="WG4gkcfXK7R62H9iYsv2-26" value="POI" style="rounded=0;whiteSpace=wrap;html=1;" vertex="1" parent="WG4gkcfXK7R62H9iYsv2-84">
          <mxGeometry x="247.9770114942529" y="204" width="65.45977011494253" height="30" as="geometry" />
        </mxCell>
        <mxCell id="WG4gkcfXK7R62H9iYsv2-27" value="3D Zone 1-WEBGL" style="text;html=1;strokeColor=none;fillColor=none;align=center;verticalAlign=middle;whiteSpace=wrap;rounded=0;" vertex="1" parent="WG4gkcfXK7R62H9iYsv2-84">
          <mxGeometry x="161.72413793103448" y="140" width="92.41379310344828" height="20" as="geometry" />
        </mxCell>
        <mxCell id="WG4gkcfXK7R62H9iYsv2-30" style="edgeStyle=orthogonalEdgeStyle;rounded=0;orthogonalLoop=1;jettySize=auto;html=1;" edge="1" parent="WG4gkcfXK7R62H9iYsv2-84" source="WG4gkcfXK7R62H9iYsv2-29">
          <mxGeometry relative="1" as="geometry">
            <mxPoint x="238.73563218390802" y="250" as="targetPoint" />
          </mxGeometry>
        </mxCell>
        <mxCell id="WG4gkcfXK7R62H9iYsv2-29" value="Texturting" style="rounded=0;whiteSpace=wrap;html=1;" vertex="1" parent="WG4gkcfXK7R62H9iYsv2-84">
          <mxGeometry x="261.8390804597701" y="300" width="77.01149425287356" height="40" as="geometry" />
        </mxCell>
        <mxCell id="WG4gkcfXK7R62H9iYsv2-31" value="OnClick()" style="text;html=1;strokeColor=none;fillColor=none;align=center;verticalAlign=middle;whiteSpace=wrap;rounded=0;" vertex="1" parent="WG4gkcfXK7R62H9iYsv2-84">
          <mxGeometry x="384.9655172413793" y="238" width="46.20689655172414" height="30" as="geometry" />
        </mxCell>
        <mxCell id="WG4gkcfXK7R62H9iYsv2-44" value="React Wrapper" style="text;html=1;strokeColor=none;fillColor=none;align=center;verticalAlign=middle;whiteSpace=wrap;rounded=0;" vertex="1" parent="WG4gkcfXK7R62H9iYsv2-84">
          <mxGeometry x="282.63218390804593" y="60" width="63.919540229885044" height="30" as="geometry" />
        </mxCell>
        <mxCell id="WG4gkcfXK7R62H9iYsv2-53" value="Level Zero" style="text;html=1;strokeColor=none;fillColor=none;align=center;verticalAlign=middle;whiteSpace=wrap;rounded=0;" vertex="1" parent="WG4gkcfXK7R62H9iYsv2-84">
          <mxGeometry x="7.701149425287355" y="15" width="53.9080459770115" height="30" as="geometry" />
        </mxCell>
        <mxCell id="WG4gkcfXK7R62H9iYsv2-85" value="" style="group" vertex="1" connectable="0" parent="1">
          <mxGeometry x="1245" y="310" width="540" height="580" as="geometry" />
        </mxCell>
        <mxCell id="WG4gkcfXK7R62H9iYsv2-86" value="" style="rounded=0;whiteSpace=wrap;html=1;dashed=1;" vertex="1" parent="WG4gkcfXK7R62H9iYsv2-85">
          <mxGeometry y="370" width="540" height="210" as="geometry" />
        </mxCell>
        <mxCell id="WG4gkcfXK7R62H9iYsv2-87" value="UI Overlay Continue (Context Menu)" style="rounded=0;whiteSpace=wrap;html=1;" vertex="1" parent="WG4gkcfXK7R62H9iYsv2-85">
          <mxGeometry x="110" y="410" width="350" height="104" as="geometry" />
        </mxCell>
        <mxCell id="WG4gkcfXK7R62H9iYsv2-88" value="OnClick(navigate next React Componet)" style="text;html=1;strokeColor=none;fillColor=none;align=center;verticalAlign=middle;whiteSpace=wrap;rounded=0;" vertex="1" parent="WG4gkcfXK7R62H9iYsv2-85">
          <mxGeometry x="180" y="470" width="220" height="30" as="geometry" />
        </mxCell>
        <mxCell id="WG4gkcfXK7R62H9iYsv2-89" value="2D Environment &lt;br&gt;(HTML, CSS, Javascript, React)" style="text;html=1;strokeColor=none;fillColor=none;align=center;verticalAlign=middle;whiteSpace=wrap;rounded=0;" vertex="1" parent="WG4gkcfXK7R62H9iYsv2-85">
          <mxGeometry x="270" y="369" width="270" height="40" as="geometry" />
        </mxCell>
        <mxCell id="WG4gkcfXK7R62H9iYsv2-90" style="edgeStyle=orthogonalEdgeStyle;rounded=0;orthogonalLoop=1;jettySize=auto;html=1;exitX=1;exitY=0.75;exitDx=0;exitDy=0;" edge="1" parent="WG4gkcfXK7R62H9iYsv2-85" source="WG4gkcfXK7R62H9iYsv2-92">
          <mxGeometry relative="1" as="geometry">
            <mxPoint x="269" y="420" as="targetPoint" />
            <mxPoint x="180.00000000000023" y="198" as="sourcePoint" />
          </mxGeometry>
        </mxCell>
        <mxCell id="WG4gkcfXK7R62H9iYsv2-91" value="" style="rounded=0;whiteSpace=wrap;html=1;dashed=1;" vertex="1" parent="WG4gkcfXK7R62H9iYsv2-85">
          <mxGeometry width="540" height="350" as="geometry" />
        </mxCell>
        <mxCell id="WG4gkcfXK7R62H9iYsv2-92" value="" style="rounded=0;whiteSpace=wrap;html=1;dashed=1;" vertex="1" parent="WG4gkcfXK7R62H9iYsv2-85">
          <mxGeometry x="92.41379310344828" y="50" width="269.5402298850575" height="250" as="geometry" />
        </mxCell>
        <mxCell id="WG4gkcfXK7R62H9iYsv2-93" value="Camera (100 Ft)" style="rounded=0;whiteSpace=wrap;html=1;" vertex="1" parent="WG4gkcfXK7R62H9iYsv2-85">
          <mxGeometry x="361.95402298850576" y="159" width="100.11494252873563" height="40" as="geometry" />
        </mxCell>
        <mxCell id="WG4gkcfXK7R62H9iYsv2-94" value="Lights" style="rounded=0;whiteSpace=wrap;html=1;" vertex="1" parent="WG4gkcfXK7R62H9iYsv2-85">
          <mxGeometry x="200.22988505747128" y="10" width="77.01149425287356" height="40" as="geometry" />
        </mxCell>
        <mxCell id="WG4gkcfXK7R62H9iYsv2-95" style="edgeStyle=orthogonalEdgeStyle;rounded=0;orthogonalLoop=1;jettySize=auto;html=1;" edge="1" parent="WG4gkcfXK7R62H9iYsv2-85" source="WG4gkcfXK7R62H9iYsv2-96">
          <mxGeometry relative="1" as="geometry">
            <mxPoint x="154.02298850574712" y="180" as="targetPoint" />
          </mxGeometry>
        </mxCell>
        <mxCell id="WG4gkcfXK7R62H9iYsv2-96" value="Material" style="rounded=0;whiteSpace=wrap;html=1;" vertex="1" parent="WG4gkcfXK7R62H9iYsv2-85">
          <mxGeometry x="15.40229885057471" y="160" width="77.01149425287356" height="40" as="geometry" />
        </mxCell>
        <mxCell id="WG4gkcfXK7R62H9iYsv2-97" style="edgeStyle=orthogonalEdgeStyle;rounded=0;orthogonalLoop=1;jettySize=auto;html=1;entryX=0.5;entryY=1;entryDx=0;entryDy=0;" edge="1" parent="WG4gkcfXK7R62H9iYsv2-85" source="WG4gkcfXK7R62H9iYsv2-98">
          <mxGeometry relative="1" as="geometry">
            <mxPoint x="238.73563218390802" y="250" as="targetPoint" />
          </mxGeometry>
        </mxCell>
        <mxCell id="WG4gkcfXK7R62H9iYsv2-98" value="GLB Loader" style="rounded=0;whiteSpace=wrap;html=1;" vertex="1" parent="WG4gkcfXK7R62H9iYsv2-85">
          <mxGeometry x="115.51724137931035" y="300" width="77.01149425287356" height="40" as="geometry" />
        </mxCell>
        <mxCell id="WG4gkcfXK7R62H9iYsv2-99" value="3D Environment &lt;br&gt;(THREEJS- WEBGL, GSAP, React)" style="text;html=1;strokeColor=none;fillColor=none;align=center;verticalAlign=middle;whiteSpace=wrap;rounded=0;" vertex="1" parent="WG4gkcfXK7R62H9iYsv2-85">
          <mxGeometry x="313.43" y="10" width="196.57" height="40" as="geometry" />
        </mxCell>
        <mxCell id="WG4gkcfXK7R62H9iYsv2-100" value="" style="rounded=0;whiteSpace=wrap;html=1;" vertex="1" parent="WG4gkcfXK7R62H9iYsv2-85">
          <mxGeometry x="154.02298850574712" y="130" width="169.42528735632183" height="120" as="geometry" />
        </mxCell>
        <mxCell id="WG4gkcfXK7R62H9iYsv2-101" style="edgeStyle=orthogonalEdgeStyle;rounded=0;orthogonalLoop=1;jettySize=auto;html=1;entryX=1.019;entryY=0.4;entryDx=0;entryDy=0;entryPerimeter=0;" edge="1" parent="WG4gkcfXK7R62H9iYsv2-85" source="WG4gkcfXK7R62H9iYsv2-93" target="WG4gkcfXK7R62H9iYsv2-100">
          <mxGeometry relative="1" as="geometry" />
        </mxCell>
        <mxCell id="WG4gkcfXK7R62H9iYsv2-102" style="edgeStyle=orthogonalEdgeStyle;rounded=0;orthogonalLoop=1;jettySize=auto;html=1;entryX=0.5;entryY=0;entryDx=0;entryDy=0;" edge="1" parent="WG4gkcfXK7R62H9iYsv2-85" source="WG4gkcfXK7R62H9iYsv2-94" target="WG4gkcfXK7R62H9iYsv2-100">
          <mxGeometry relative="1" as="geometry" />
        </mxCell>
        <mxCell id="WG4gkcfXK7R62H9iYsv2-103" value="PIN" style="rounded=0;whiteSpace=wrap;html=1;" vertex="1" parent="WG4gkcfXK7R62H9iYsv2-85">
          <mxGeometry x="234.8850574712643" y="190" width="65.45977011494253" height="30" as="geometry" />
        </mxCell>
        <mxCell id="WG4gkcfXK7R62H9iYsv2-104" value="PIN" style="rounded=0;whiteSpace=wrap;html=1;" vertex="1" parent="WG4gkcfXK7R62H9iYsv2-85">
          <mxGeometry x="238.73563218390802" y="194" width="65.45977011494253" height="30" as="geometry" />
        </mxCell>
        <mxCell id="WG4gkcfXK7R62H9iYsv2-105" value="PIN" style="rounded=0;whiteSpace=wrap;html=1;" vertex="1" parent="WG4gkcfXK7R62H9iYsv2-85">
          <mxGeometry x="243.35632183908046" y="199" width="65.45977011494253" height="30" as="geometry" />
        </mxCell>
        <mxCell id="WG4gkcfXK7R62H9iYsv2-106" value="POI" style="rounded=0;whiteSpace=wrap;html=1;" vertex="1" parent="WG4gkcfXK7R62H9iYsv2-85">
          <mxGeometry x="247.9770114942529" y="204" width="65.45977011494253" height="30" as="geometry" />
        </mxCell>
        <mxCell id="WG4gkcfXK7R62H9iYsv2-107" value="3D Zone 1-WEBGL" style="text;html=1;strokeColor=none;fillColor=none;align=center;verticalAlign=middle;whiteSpace=wrap;rounded=0;" vertex="1" parent="WG4gkcfXK7R62H9iYsv2-85">
          <mxGeometry x="161.72413793103448" y="140" width="92.41379310344828" height="20" as="geometry" />
        </mxCell>
        <mxCell id="WG4gkcfXK7R62H9iYsv2-108" style="edgeStyle=orthogonalEdgeStyle;rounded=0;orthogonalLoop=1;jettySize=auto;html=1;" edge="1" parent="WG4gkcfXK7R62H9iYsv2-85" source="WG4gkcfXK7R62H9iYsv2-109">
          <mxGeometry relative="1" as="geometry">
            <mxPoint x="238.73563218390802" y="250" as="targetPoint" />
          </mxGeometry>
        </mxCell>
        <mxCell id="WG4gkcfXK7R62H9iYsv2-109" value="Texturting" style="rounded=0;whiteSpace=wrap;html=1;" vertex="1" parent="WG4gkcfXK7R62H9iYsv2-85">
          <mxGeometry x="261.8390804597701" y="300" width="77.01149425287356" height="40" as="geometry" />
        </mxCell>
        <mxCell id="WG4gkcfXK7R62H9iYsv2-110" value="OnLoad()" style="text;html=1;strokeColor=none;fillColor=none;align=center;verticalAlign=middle;whiteSpace=wrap;rounded=0;" vertex="1" parent="WG4gkcfXK7R62H9iYsv2-85">
          <mxGeometry x="384.9655172413793" y="238" width="46.20689655172414" height="30" as="geometry" />
        </mxCell>
        <mxCell id="WG4gkcfXK7R62H9iYsv2-111" value="React Wrapper" style="text;html=1;strokeColor=none;fillColor=none;align=center;verticalAlign=middle;whiteSpace=wrap;rounded=0;" vertex="1" parent="WG4gkcfXK7R62H9iYsv2-85">
          <mxGeometry x="282.63218390804593" y="60" width="63.919540229885044" height="30" as="geometry" />
        </mxCell>
        <mxCell id="WG4gkcfXK7R62H9iYsv2-112" value="Level One" style="text;html=1;strokeColor=none;fillColor=none;align=center;verticalAlign=middle;whiteSpace=wrap;rounded=0;" vertex="1" parent="WG4gkcfXK7R62H9iYsv2-85">
          <mxGeometry x="7.701149425287355" y="15" width="53.9080459770115" height="30" as="geometry" />
        </mxCell>
        <mxCell id="WG4gkcfXK7R62H9iYsv2-123" value="React Router" style="text;html=1;strokeColor=none;fillColor=none;align=center;verticalAlign=middle;whiteSpace=wrap;rounded=0;" vertex="1" parent="WG4gkcfXK7R62H9iYsv2-85">
          <mxGeometry x="290" y="540" width="110" height="30" as="geometry" />
        </mxCell>
        <mxCell id="WG4gkcfXK7R62H9iYsv2-116" value="&lt;font style=&quot;font-size: 18px;&quot;&gt;&lt;b&gt;WEBGL to WEBGL&lt;/b&gt;&lt;/font&gt;" style="text;html=1;strokeColor=none;fillColor=none;align=center;verticalAlign=middle;whiteSpace=wrap;rounded=0;" vertex="1" parent="1">
          <mxGeometry x="975" y="200" width="170" height="30" as="geometry" />
        </mxCell>
        <mxCell id="WG4gkcfXK7R62H9iYsv2-124" style="edgeStyle=orthogonalEdgeStyle;rounded=0;orthogonalLoop=1;jettySize=auto;html=1;exitX=1;exitY=0.5;exitDx=0;exitDy=0;" edge="1" parent="1" source="WG4gkcfXK7R62H9iYsv2-87" target="WG4gkcfXK7R62H9iYsv2-125">
          <mxGeometry relative="1" as="geometry">
            <mxPoint x="1535" y="820" as="sourcePoint" />
          </mxGeometry>
        </mxCell>
        <mxCell id="WG4gkcfXK7R62H9iYsv2-134" style="edgeStyle=orthogonalEdgeStyle;rounded=0;orthogonalLoop=1;jettySize=auto;html=1;" edge="1" parent="1" source="WG4gkcfXK7R62H9iYsv2-117">
          <mxGeometry relative="1" as="geometry">
            <mxPoint x="4050" y="540" as="targetPoint" />
          </mxGeometry>
        </mxCell>
        <mxCell id="WG4gkcfXK7R62H9iYsv2-136" value="&lt;font style=&quot;font-size: 14px;&quot;&gt;React Router&lt;/font&gt;" style="edgeLabel;html=1;align=center;verticalAlign=middle;resizable=0;points=[];" vertex="1" connectable="0" parent="WG4gkcfXK7R62H9iYsv2-134">
          <mxGeometry x="0.8305" y="-2" relative="1" as="geometry">
            <mxPoint x="-89" y="-13" as="offset" />
          </mxGeometry>
        </mxCell>
        <mxCell id="WG4gkcfXK7R62H9iYsv2-117" value="" style="rounded=0;whiteSpace=wrap;html=1;" vertex="1" parent="1">
          <mxGeometry x="2163" y="170" width="1640" height="740" as="geometry" />
        </mxCell>
        <mxCell id="WG4gkcfXK7R62H9iYsv2-125" value="&lt;font style=&quot;font-size: 24px;&quot;&gt;React Component(&lt;b&gt;ws://13.234.219.0&lt;/b&gt;&lt;span style=&quot;background-color: initial;&quot;&gt;)&lt;/span&gt;&lt;/font&gt;" style="rounded=0;whiteSpace=wrap;html=1;dashed=1;" vertex="1" parent="1">
          <mxGeometry x="2233" y="270" width="1465" height="580" as="geometry" />
        </mxCell>
        <mxCell id="WG4gkcfXK7R62H9iYsv2-118" value="&lt;font style=&quot;font-size: 18px;&quot;&gt;&lt;b&gt;WEBGL to Pixel Streaming&lt;/b&gt;&lt;/font&gt;" style="text;html=1;strokeColor=none;fillColor=none;align=center;verticalAlign=middle;whiteSpace=wrap;rounded=0;" vertex="1" parent="1">
          <mxGeometry x="2843" y="203" width="300" height="30" as="geometry" />
        </mxCell>
      </root>
    </mxGraphModel>
  </diagram>
</mxfile>
